<svg width="1202" height="712" viewBox="0 0 1202 712" fill="none" xmlns="http://www.w3.org/2000/svg">
<g id="workingGuy_final">
<g id="Leaf">
<path id="Vector_2" d="M249.37 622.796C236.569 656.377 204.507 673.682 204.507 673.682C204.507 673.682 193.202 636.542 206.004 602.959C218.805 569.379 250.866 552.074 250.866 552.074C250.866 552.074 262.171 589.215 249.37 622.796Z" fill="#F1F1F1"/>
<path id="Vector" d="M248.084 608.203C221.448 629.953 213.898 668.221 213.898 668.221C213.898 668.221 249.535 671.225 276.171 649.476C302.807 627.727 310.355 589.458 310.355 589.458C310.355 589.458 274.719 586.453 248.084 608.203Z" fill="#F1F1F1"/>
</g>
<g id="cup">
<path id="Vector_3" d="M981.447 550.825V562.486C981.442 563.413 981.104 564.3 980.506 564.955C979.908 565.61 979.098 565.98 978.252 565.986H972.929C972.79 565.984 972.651 566.014 972.522 566.072C972.393 566.131 972.275 566.217 972.176 566.325C972.077 566.434 971.998 566.563 971.945 566.705C971.892 566.845 971.864 566.998 971.866 567.151V662.771C971.86 663.698 971.523 664.585 970.925 665.24C970.327 665.895 969.518 666.265 968.671 666.27H903.734C902.887 666.269 902.075 665.901 901.476 665.245C900.878 664.588 900.541 663.7 900.541 662.771V567.151C900.539 566.842 900.427 566.546 900.228 566.328C900.027 566.11 899.757 565.986 899.476 565.986H893.088C892.242 565.984 891.429 565.615 890.831 564.96C890.232 564.303 889.895 563.413 889.895 562.486V550.825C889.893 550.366 889.977 549.911 890.136 549.487C890.296 549.062 890.532 548.675 890.829 548.35C891.125 548.026 891.477 547.769 891.865 547.592C892.252 547.417 892.669 547.326 893.088 547.327H978.252C979.098 547.33 979.909 547.7 980.509 548.355C981.107 549.01 981.444 549.898 981.447 550.825Z" fill="#F2F2F2"/>
<g id="vapour1">
<path id="Vector 8" d="M955.885 526.88C951.805 526.88 951.059 520.46 950.885 517.022C950.593 511.259 953.551 510.207 957.107 506.311C963.559 499.244 959.477 488.974 952.885 484.16" stroke="#FCF2F2" stroke-linecap="round"/>
</g>
<g id="vapour2">
<path id="Vector 6" d="M921.885 537.834C917.806 537.834 917.06 531.414 916.885 527.975C916.593 522.213 919.551 521.161 923.107 517.265C929.559 510.198 925.477 499.928 918.885 495.114" stroke="#FCF2F2" stroke-linecap="round"/>
</g>
<g id="vapour3">
<path id="Vector 7" d="M933.499 542.215C928.02 536.88 932.114 534.436 936.499 530.166C938.528 528.19 940.499 526.879 940.499 523.594C940.499 520.981 941.57 517.022 938.499 517.022" stroke="#FCF2F2" stroke-linecap="round"/>
</g>
<path id="Vector_4" d="M971.961 568.434H900.636V571.931H971.961V568.434Z" fill="#E6E6E6"/>
<path id="Vector_5" d="M971.232 620.561C948.076 631.421 924.667 631.54 900.998 620.561V595.822C923.784 587.149 948.446 587.149 971.232 595.822V620.561Z" fill="#E6E6E6"/>
<g id="king-svgrepo-com 1" clip-path="url(#clip0_15_217)">
<g id="Group">
<path id="Vector_6" d="M938.342 591.536C938.342 592.207 937.733 592.755 936.987 592.755C936.242 592.755 935.632 592.207 935.632 591.536C935.632 590.865 936.242 590.316 936.987 590.316C937.733 590.316 938.342 590.865 938.342 591.536ZM928.179 592.755C928.179 593.426 927.57 593.975 926.824 593.975C926.079 593.975 925.469 593.426 925.469 592.755C925.469 592.085 926.079 591.536 926.824 591.536C927.57 591.536 928.179 592.085 928.179 592.755ZM948.505 592.755C948.505 593.426 947.896 593.975 947.15 593.975C946.405 593.975 945.795 593.426 945.795 592.755C945.795 592.085 946.405 591.536 947.15 591.536C947.896 591.536 948.505 592.085 948.505 592.755Z" fill="#FFE079"/>
<path id="Vector_7" d="M948.505 607.39V608.61C948.505 609.281 947.896 609.829 947.15 609.829L945.795 612.268C944.44 613.488 940.917 614.098 940.917 614.098C940.578 612.817 939.63 611.049 937.055 611.049C934.48 611.049 933.464 612.817 933.193 614.098C933.193 614.098 929.738 613.488 928.315 612.329C928.315 612.329 928.315 612.329 928.315 612.268L926.892 609.829C926.147 609.829 925.537 609.281 925.537 608.61V607.39C925.537 606.658 926.079 606.171 926.892 606.171V602.512H947.218V606.171C947.963 606.171 948.505 606.658 948.505 607.39Z" fill="#FFD0A1"/>
<path id="Vector_8" d="M947.15 593.975V602.512H926.824V593.975L932.922 597.634L936.987 592.755L941.052 597.634L947.15 593.975Z" fill="#ECF4F7"/>
<path id="Vector_9" d="M940.443 625.684H933.532C934.955 623.854 936.987 623.245 936.987 623.245C936.987 623.245 939.02 623.854 940.443 625.684Z" fill="#EED2FF"/>
<path id="Vector_10" d="M945.118 619.586C948.505 619.586 951.215 620.196 952.571 620.805C947.15 625.074 940.443 625.684 940.443 625.684C939.02 623.854 936.987 623.245 936.987 623.245C936.987 623.245 934.955 623.854 933.532 625.684C933.532 625.684 926.824 625.074 921.404 620.805C922.759 620.196 925.469 619.586 928.857 619.586H929.534C930.889 620.501 931.906 622.025 936.987 622.025C942.069 622.025 943.424 620.501 944.643 619.586H945.118Z" fill="#C49AE9"/>
<path id="Vector_11" d="M956.636 625.684H940.443C940.443 625.684 947.15 625.074 952.571 620.805C953.587 621.598 954.264 622.33 954.264 622.33C954.264 622.33 956.026 623.976 956.636 625.684ZM933.532 625.684H917.339C917.949 623.976 919.71 622.33 919.71 622.33C919.71 622.33 920.388 621.598 921.404 620.805C926.824 625.074 933.532 625.684 933.532 625.684Z" fill="#7EE1E6"/>
<path id="Vector_12" d="M933.125 614.098C933.464 612.817 934.413 611.049 936.987 611.049C939.63 611.049 940.578 612.817 940.849 614.098C940.849 614.098 944.372 613.488 945.727 612.268C945.321 615.927 943.966 618.305 941.866 619.586C940.51 620.44 938.817 620.805 936.92 620.805C935.158 620.805 933.532 620.379 932.245 619.525C930.076 618.122 928.586 615.683 928.179 612.268C929.602 613.488 933.058 614.098 933.125 614.098Z" fill="#ECF4F7"/>
</g>
<path id="Vector_13" d="M917.339 625.989C917.271 625.989 917.271 625.989 917.203 625.989C917.068 625.928 917 625.745 917 625.623C917.678 623.854 919.371 622.208 919.439 622.147C919.575 622.025 919.778 622.025 919.913 622.147C920.049 622.269 920.117 622.391 919.981 622.574L917.61 625.928C917.542 625.928 917.474 625.989 917.339 625.989ZM956.636 625.989C956.5 625.989 956.433 625.928 956.365 625.867L953.993 622.513C953.926 622.391 953.926 622.208 954.061 622.086C954.197 621.964 954.4 622.025 954.535 622.086C954.603 622.147 956.365 623.793 956.975 625.562C957.042 625.684 956.975 625.867 956.771 625.928C956.704 625.989 956.704 625.989 956.636 625.989ZM940.443 625.989C940.307 625.989 940.239 625.928 940.172 625.867C939.02 624.403 937.462 623.732 936.987 623.549C936.581 623.732 934.955 624.342 933.803 625.867C933.735 625.989 933.6 625.989 933.464 625.989C933.193 625.989 926.553 625.318 921.133 621.049C921.065 620.988 920.997 620.866 920.997 620.805C920.997 620.683 921.065 620.623 921.201 620.562C922.556 619.952 925.266 619.281 928.789 619.281C928.992 619.281 929.128 619.403 929.128 619.586C929.128 619.769 928.992 619.891 928.789 619.891C925.74 619.891 923.301 620.379 921.946 620.866C926.621 624.342 932.177 625.196 933.328 625.318C934.751 623.549 936.716 622.94 936.852 622.94C936.919 622.94 936.987 622.94 937.055 622.94C937.123 622.94 939.087 623.549 940.578 625.318C941.662 625.196 947.218 624.342 951.961 620.866C950.605 620.379 948.166 619.891 945.117 619.891C944.914 619.891 944.779 619.769 944.779 619.586C944.779 619.403 944.914 619.281 945.117 619.281C948.641 619.281 951.351 619.952 952.706 620.562C952.774 620.623 952.909 620.684 952.909 620.805C952.909 620.927 952.909 620.988 952.774 621.049C947.354 625.318 940.714 625.989 940.443 625.989ZM936.987 621.11C931.973 621.11 928.586 617.878 927.908 612.451C927.841 612.39 927.841 612.329 927.841 612.268L926.621 610.134C925.808 610.012 925.13 609.402 925.13 608.61V607.39C925.13 606.598 925.672 606.049 926.486 605.866V604.951C926.486 604.768 926.621 604.646 926.824 604.646C927.028 604.646 927.163 604.768 927.163 604.951V606.171C927.163 606.354 927.028 606.476 926.824 606.476C926.215 606.476 925.808 606.841 925.808 607.39V608.61C925.808 609.098 926.282 609.525 926.824 609.525C926.96 609.525 927.095 609.585 927.095 609.707L928.518 612.147C929.602 613.061 932.041 613.549 932.854 613.732C933.261 612.391 934.345 610.744 936.987 610.744C939.63 610.744 940.714 612.391 941.12 613.732C941.933 613.549 944.372 613 945.456 612.086L946.811 609.647C946.879 609.525 947.015 609.464 947.082 609.464C947.625 609.464 948.099 609.037 948.099 608.549V607.329C948.099 606.781 947.692 606.415 947.082 606.415C946.879 606.415 946.744 606.293 946.744 606.11V604.89C946.744 604.707 946.879 604.585 947.082 604.585C947.286 604.585 947.421 604.707 947.421 604.89V605.805C948.234 605.927 948.776 606.476 948.776 607.329V608.549C948.776 609.342 948.099 609.951 947.286 610.073L946.066 612.268V612.329C945.253 619.586 940.714 621.11 936.987 621.11ZM928.654 613C929.467 617.696 932.516 620.501 936.987 620.501C941.798 620.501 944.576 617.939 945.321 613C944.034 613.732 942.001 614.22 941.256 614.342C941.391 614.891 941.391 615.317 941.391 615.317C941.391 615.5 941.256 615.622 941.052 615.622C940.849 615.622 940.714 615.5 940.714 615.317C940.714 615.256 940.714 614.769 940.578 614.22C940.578 614.22 940.578 614.22 940.578 614.159C940.239 613 939.426 611.354 936.987 611.354C934.548 611.354 933.735 613 933.396 614.159C933.396 614.159 933.396 614.159 933.396 614.22C933.261 614.829 933.261 615.317 933.261 615.317C933.261 615.5 933.125 615.622 932.922 615.622C932.719 615.622 932.583 615.5 932.583 615.317C932.583 615.317 932.583 614.891 932.719 614.342C931.906 614.159 930.009 613.732 928.654 613ZM937.665 613.793H936.31C936.106 613.793 935.971 613.671 935.971 613.488C935.971 613.305 936.106 613.183 936.31 613.183H937.665C937.868 613.183 938.004 613.305 938.004 613.488C938.004 613.671 937.868 613.793 937.665 613.793ZM941.052 607.085C940.849 607.085 940.714 606.963 940.714 606.78V606.475H939.697C939.494 606.475 939.359 606.353 939.359 606.171C939.359 605.988 939.494 605.866 939.697 605.866H942.408C942.611 605.866 942.746 605.988 942.746 606.171C942.746 606.353 942.611 606.475 942.408 606.475H941.391V606.78C941.391 606.963 941.256 607.085 941.052 607.085ZM932.922 607.085C932.719 607.085 932.583 606.963 932.583 606.78V606.475H931.567C931.364 606.475 931.228 606.353 931.228 606.171C931.228 605.988 931.364 605.866 931.567 605.866H934.277C934.48 605.866 934.616 605.988 934.616 606.171C934.616 606.353 934.48 606.475 934.277 606.475H933.261V606.78C933.261 606.963 933.125 607.085 932.922 607.085ZM947.15 602.817H926.824C926.621 602.817 926.485 602.695 926.485 602.512V594.219C925.74 594.097 925.13 593.487 925.13 592.755C925.13 591.902 925.876 591.231 926.824 591.231C927.773 591.231 928.518 591.902 928.518 592.755C928.518 593.304 928.179 593.853 927.637 594.097L932.854 597.207L936.377 592.938C935.768 592.694 935.293 592.146 935.293 591.536C935.293 590.682 936.039 590.011 936.987 590.011C937.936 590.011 938.681 590.682 938.681 591.536C938.681 592.207 938.207 592.755 937.597 592.938L941.12 597.207L946.337 594.097C945.795 593.853 945.456 593.304 945.456 592.755C945.456 591.902 946.202 591.231 947.15 591.231C948.099 591.231 948.844 591.902 948.844 592.755C948.844 593.487 948.234 594.097 947.489 594.219V602.512C947.489 602.695 947.354 602.817 947.15 602.817ZM927.163 602.207H946.812V594.524L941.256 597.878C941.12 597.939 940.917 597.939 940.782 597.817L936.987 593.243L933.193 597.817C933.058 597.939 932.854 598 932.719 597.878L927.163 594.524V602.207ZM926.824 591.841C926.282 591.841 925.808 592.268 925.808 592.755C925.808 593.243 926.282 593.67 926.824 593.67C927.366 593.67 927.841 593.243 927.841 592.755C927.841 592.268 927.366 591.841 926.824 591.841ZM947.15 593.67C947.692 593.67 948.167 593.243 948.167 592.755C948.167 592.268 947.692 591.841 947.15 591.841C946.608 591.841 946.134 592.268 946.134 592.755C946.134 593.243 946.608 593.67 947.15 593.67ZM936.987 590.621C936.445 590.621 935.971 591.048 935.971 591.536C935.971 592.024 936.445 592.451 936.987 592.451C937.529 592.451 938.004 592.024 938.004 591.536C938.004 591.048 937.529 590.621 936.987 590.621Z" fill="#51565F"/>
</g>
</g>
<g id="body">
<path id="Vector_7_2" d="M634.191 673.767C648.572 673.767 660.229 660.998 660.229 645.245C660.229 629.494 648.572 616.725 634.191 616.725C619.812 616.725 608.153 629.494 608.153 645.245C608.153 660.998 619.812 673.767 634.191 673.767Z" fill="#FBBEBE"/>
<path id="Path 1421" d="M812.8 479.065C803.993 474.936 787.334 477.467 777.693 477.163C764.441 476.821 750.442 478.362 739.567 486.677C726.348 496.804 720.267 515.39 720.371 533.067C720.476 550.744 725.896 567.788 731.698 584.289C734.928 593.594 738.334 602.822 739.463 612.621C739.463 612.621 623.928 627.626 616.953 633.78C609.978 639.935 606.861 652.245 612.21 659.857C617.559 667.468 784.459 675.11 806.433 670.017C808.273 670.067 810.056 669.317 811.391 667.929C812.727 666.541 813.505 664.63 813.555 662.616C815.775 648.421 817.565 634.208 818.762 619.88C819.397 612.497 819.858 605.114 820.326 597.712L825.318 519.185C825.875 513.66 825.805 508.081 825.11 502.573C823.808 495.099 819.768 482.427 812.8 479.065Z" fill="#FBBEBE"/>
<path id="Path 1430" d="M785.516 356.686C783.327 355.042 782.286 352.322 779.644 351.389C772.489 348.877 757.758 355.138 750.357 356.602C747.706 356.994 745.109 357.747 742.629 358.844C736.635 361.812 732.832 368.471 730.556 375.245C719.161 409.097 737.748 447.36 730.296 482.505C728.611 490.418 725.639 497.934 723.572 505.755C752.859 506.878 781.382 491.997 810.58 494.528C816.679 495.042 823.54 496.973 826.406 502.881C826.572 502.746 826.735 502.606 826.893 502.461C827.855 501.571 828.649 500.482 829.227 499.258C829.805 498.031 830.159 496.695 830.265 495.319C830.372 493.944 830.229 492.561 829.847 491.247C829.465 489.932 828.851 488.714 828.04 487.658C827.107 486.735 826.253 485.723 825.486 484.633C824.707 482.997 824.318 481.169 824.357 479.324C822.2 441.475 813.906 404.35 799.865 369.688C799.013 367.171 797.701 364.873 796.009 362.932C793.252 359.868 788.841 359.013 785.516 356.686Z" fill="#6C63FF"/>
<path id="Vector_6_2" d="M812.591 409.15C809.274 387.289 805.852 365.008 796.577 345.313C790.481 332.414 780.803 320.121 767.758 317.57C765.188 317.319 762.663 316.679 760.254 315.668C756.432 313.651 705.067 281.531 696.902 275.937C689.893 271.135 678.827 262.242 673.248 262.242C667.635 262.107 646.112 267.594 562.104 260.401C562.104 260.401 539.026 270.365 521.168 282.448C520.897 282.252 433.975 333.381 430.71 333.247C424.525 332.963 418.777 337.299 415.231 342.762C411.687 348.223 410.024 354.985 408.284 361.522C427.269 407.834 444.64 454.207 463.627 500.52C464.516 502.263 464.988 504.227 465 506.223C464.618 508.297 463.81 510.247 462.637 511.928C453.327 528.312 453.623 548.919 454.64 568.175C455.658 587.431 456.917 607.77 449.06 625.03C446.924 629.769 444.144 634.106 442.112 638.845C437.353 649.577 435.632 683.903 438.412 695.434L786.698 706.362C779.21 683.815 812.591 409.15 812.591 409.15Z" fill="#6C63FF"/>
<g id="hand">
<g id="shoulder">
<path id="Path 1431" d="M393.776 477.187C402.502 473.448 419.007 475.739 428.559 475.464C441.689 475.154 455.559 476.551 466.334 484.08C479.431 493.252 485.455 510.084 485.353 526.093C485.248 542.102 479.879 557.537 474.13 572.482C470.93 580.908 467.555 589.266 466.437 598.14C467.951 604.714 441.111 651.598 437.134 658.542C427.194 667.47 426.2 666.478 412.283 663.502C410.459 663.548 397.371 658.542 395.172 648.229C393.849 646.972 393.078 645.241 393.028 643.417C390.829 630.562 389.056 617.69 387.87 604.714C387.241 598.028 386.784 591.342 386.32 584.638L381.375 513.521C380.823 508.517 380.892 503.464 381.58 498.477C382.871 491.708 386.873 480.232 393.776 477.187Z" fill="#FBBEBE"/>
<g id="Vector 3">
<path id="Path 1431_2" d="M423.784 342.885C425.972 341.241 427.014 338.521 429.655 337.588C436.81 335.076 451.542 341.337 458.942 342.801C461.594 343.193 464.19 343.946 466.671 345.043C472.664 348.011 476.467 354.67 478.743 361.444C490.138 395.296 471.551 433.559 479.004 468.704C480.688 476.617 483.66 484.133 485.727 491.954C456.44 493.077 427.917 478.196 398.719 480.727C392.621 481.241 385.759 483.172 382.894 489.08C382.727 488.945 382.565 488.805 382.406 488.66C381.444 487.77 380.651 486.681 380.072 485.457C379.494 484.23 379.141 482.894 379.034 481.518C378.928 480.144 379.07 478.76 379.452 477.446C379.834 476.131 380.449 474.913 381.26 473.857C382.192 472.934 383.047 471.922 383.814 470.832C384.592 469.196 384.981 467.368 384.943 465.523C387.1 427.674 395.393 390.549 409.434 355.887C410.286 353.37 411.598 351.072 413.291 349.131C416.047 346.067 420.458 345.212 423.784 342.885Z" fill="#6C63FF"/>
</g>
</g>
<g id="arm">
<path id="Vector_13_2" d="M591.621 664.114C606.001 664.114 617.659 651.343 617.659 635.592C617.659 619.84 606.001 607.07 591.621 607.07C577.24 607.07 565.582 619.84 565.582 635.592C565.582 651.343 577.24 664.114 591.621 664.114Z" fill="#FBBEBE"/>
<path id="Vector 5" d="M422.921 660.905C418.303 660.905 414.63 660.507 410.293 659.451C407.781 658.84 406.645 656.33 404.491 655.089C402.512 653.948 400.184 652.233 399.03 650.021C396.666 645.489 395.618 642.915 395.618 637.352C395.618 631.598 395.93 628.543 399.372 623.936C400.277 622.723 403.521 619.895 403.772 618.66C404.192 616.581 406.049 616.768 407.373 615.461C409.602 613.264 415.922 612.481 418.826 612.304C429.385 611.661 439.462 606.323 450.225 606.323C462.398 606.323 474.571 606.323 486.743 606.323C490.574 606.323 495.313 605.46 499.03 606.364C503.601 607.477 507.782 610.061 512.682 610.061C516.395 610.061 520.273 611.208 523.641 612.262C525.753 612.923 529.083 613.052 531.301 613.052C533.942 613.052 536.252 614.547 538.961 614.547C541.274 614.547 543.45 615.153 545.787 615.295C546.503 615.338 550.885 615.919 551.248 616.417C552.86 618.624 559.361 617.538 561.828 617.538C563.696 617.538 571.021 618.346 572.408 619.781C575.494 622.972 581.282 626.264 581.282 631.163C581.282 635.698 581.487 639.413 578.4 642.794C576.826 644.518 572.733 649.537 570.361 649.689C567.14 649.897 562.55 652.116 559.78 653.802C558.182 654.775 555.81 654.365 554.509 655.505C553.959 655.988 552.6 655.631 551.931 655.671C550.684 655.747 550.19 657.166 548.859 657.166C541.052 657.166 533.336 659.409 525.651 659.409C520.635 659.409 515.794 660.905 510.672 660.905C505.072 660.905 499.602 662.4 493.91 662.4C484.05 662.4 474.487 663.148 464.559 663.148C456.242 663.148 447.741 663.896 439.303 663.896C434.976 663.896 430.653 663.311 426.486 663.148C421.751 662.963 417.338 660.905 412.682 660.905" fill="#FBBEBE"/>
</g>
</g>
</g>
<g id="Table">
<path id="Vector_9_2" d="M1201.39 661.566H1.89966V701.942H72.8481V711.327H1130.47V701.942H1201.39V661.566Z" fill="#F1F1F1"/>
</g>
<g id="head">
<path id="Ellipse 276" d="M614.677 254.035C667.956 254.035 711.148 206.722 711.148 148.36C711.148 89.998 667.956 42.686 614.677 42.686C561.397 42.686 518.205 89.998 518.205 148.36C518.205 206.722 561.397 254.035 614.677 254.035Z" fill="#FEB8B8"/>
<path id="Path 1461" d="M704.782 57.1932C690.359 31.5379 667.781 12.6333 641.396 4.11881L629.554 13.5859V1.29315C623.216 0.2308 616.803 -0.178449 610.397 0.0707892L600.179 10.198V0.912161C585.05 2.97146 570.475 8.44206 557.374 16.9789C544.271 25.5159 532.925 36.9339 524.052 50.5131C501.863 85.5538 498.117 134.303 519.942 169.625C525.932 149.456 533.205 130.532 539.196 110.365C543.906 111.069 548.678 111.094 553.393 110.441L560.682 91.8102L562.718 109.652C585.312 107.497 618.822 102.762 640.24 98.4252L638.157 84.7368L650.618 96.111C657.179 94.4567 661.076 92.9553 660.755 91.8083C676.684 119.939 696.178 137.905 712.106 166.035C718.156 126.37 725.119 93.3891 704.782 57.1932Z" fill="#2F2E41"/>
<path id="Vector_10_2" d="M525.965 187.747C510.463 187.747 497.897 172.864 497.897 154.505V137.884C497.897 119.525 510.463 104.642 525.965 104.642V187.747Z" fill="#6C63FF"/>
<path id="Vector_11_2" d="M705.108 104.642C720.61 104.642 733.176 119.525 733.176 137.884V154.505C733.176 172.864 720.61 187.747 705.108 187.747V104.642Z" fill="#6C63FF"/>
<path id="Vector_12_2" d="M719.816 139H715.363C715.363 72.1108 669.415 17.6919 612.939 17.6919C556.462 17.6919 510.515 72.1108 510.515 139H506.062C506.062 69.2024 554.007 12.4178 612.939 12.4178C671.871 12.4178 719.816 69.2025 719.816 139Z" fill="#6C63FF"/>
</g>
<g id="Laptop">
<path id="Vector_8_2" d="M786.849 708.193H429.13C424.952 708.188 420.95 706.368 417.995 703.134C415.042 699.899 413.381 695.513 413.376 690.939V453.219C413.381 448.644 415.042 444.258 417.995 441.024C420.95 437.789 424.952 435.969 429.13 435.963H786.849C791.025 435.969 795.03 437.789 797.982 441.024C800.935 444.258 802.597 448.644 802.602 453.219V690.939C802.597 695.513 800.935 699.899 797.982 703.134C795.03 706.368 791.025 708.188 786.849 708.193Z" fill="#3F3D56"/>
<g id="orange-svgrepo-com 1">
<path id="Vector_14" d="M610.5 605.035C624.37 605.035 635.613 594.443 635.613 581.378C635.613 568.312 624.37 557.721 610.5 557.721C596.631 557.721 585.387 568.312 585.387 581.378C585.387 594.443 596.631 605.035 610.5 605.035Z" fill="#EC6907"/>
<path id="Vector_15" d="M613.281 545.422C616.331 543.159 621.555 544.612 621.555 544.612C621.555 544.612 621.832 549.736 618.781 552C615.73 554.264 610.507 552.81 610.507 552.81C610.507 552.81 610.23 547.686 613.281 545.422Z" fill="#08AA6E"/>
<g id="Group_2">
<path id="Vector_16" d="M611.525 556.776V554.012C612.223 554.127 613.142 554.235 614.145 554.235C616.322 554.235 618.094 553.739 619.415 552.759C622.843 550.215 622.591 544.793 622.579 544.563L622.542 543.88L621.845 543.686C621.772 543.666 620.028 543.187 617.916 543.187C615.74 543.187 613.967 543.684 612.646 544.664C612.015 545.132 611.51 545.698 611.104 546.31C610.014 543.229 606.926 541 603.293 541H599.752V542.931H603.293C606.702 542.931 609.475 545.544 609.475 548.755V552.34C609.474 552.43 609.474 552.509 609.475 552.578V556.776C595.536 557.285 584.362 568.124 584.362 581.377C584.362 594.954 596.088 606 610.5 606C624.913 606 636.638 594.954 636.638 581.377C636.638 568.124 625.464 557.285 611.525 556.776ZM611.757 550.144C612.009 548.879 612.589 547.165 613.915 546.181C614.865 545.476 616.211 545.119 617.916 545.119C618.957 545.119 619.908 545.257 620.528 545.375C620.509 545.853 620.454 546.53 620.304 547.279C620.052 548.544 619.473 550.257 618.147 551.242C617.196 551.947 615.85 552.304 614.145 552.304C613.104 552.304 612.154 552.165 611.534 552.047C611.552 551.57 611.607 550.893 611.757 550.144ZM610.5 604.068C597.218 604.068 586.412 593.889 586.412 581.377C586.412 568.865 597.218 558.686 610.5 558.686C623.782 558.686 634.587 568.865 634.587 581.377C634.587 593.889 623.782 604.068 610.5 604.068Z" fill="#53180F"/>
<path id="Vector_17" d="M610.5 600.206V602.137C614 602.137 617.349 601.383 620.455 599.896L619.525 598.174C616.711 599.522 613.674 600.206 610.5 600.206Z" fill="#53180F"/>
<path id="Vector_18" d="M630.487 581.377C630.487 587.588 627.226 593.399 621.765 596.923L622.923 598.517C628.943 594.632 632.537 588.225 632.537 581.377H630.487Z" fill="#53180F"/>
</g>
</g>
</g>
</g>
<defs>
<clipPath id="clip0_15_217">
<rect width="40" height="36" fill="white" transform="translate(917 590)"/>
</clipPath>
</defs>
</svg>
